<svg xmlns="http://www.w3.org/2000/svg" viewBox="0 0 555.36 588.07"><defs><style>.cls-1{fill:#fff100;}</style></defs><title>ki-logo-svg</title><g id="Layer_2" data-name="Layer 2"><g id="PROTO"><rect class="cls-1" x="428.62" y="185.26" width="126.74" height="402.81" rx="61.85" ry="61.85"/><path class="cls-1" d="M36.27,332a54.9,54.9,0,0,1,0-76l90.47-90.47V57.68A57.85,57.85,0,0,0,69.06,0H57.68A57.85,57.85,0,0,0,0,57.68V530.29A57.85,57.85,0,0,0,57.68,588H69.06a57.85,57.85,0,0,0,57.68-57.68V422.47Z"/><path class="cls-1" d="M383.81,498.24,179.55,294,383,90.54a52.65,52.65,0,0,0,0-74.24h0a52.65,52.65,0,0,0-74.24,0L69.08,256a54.9,54.9,0,0,0,0,76L309.57,572.49a52.65,52.65,0,0,0,74.24,0h0A52.65,52.65,0,0,0,383.81,498.24Z"/><path class="cls-1" d="M550.23,59v49.9A58.24,58.24,0,0,1,492,167.09a59,59,0,0,1-12.9-1.43A58.27,58.27,0,0,1,434,113.79c-.06-.62-.1-1.23-.13-1.85h0c0-1-.08-2-.08-3.07v-24A58.18,58.18,0,0,0,482,142.23h0a12.27,12.27,0,0,0,2.51.38h0l.65,0a12.72,12.72,0,0,0,12.22-9.17s0,0,0,0a12.67,12.67,0,0,0,.47-2.85v0a58.3,58.3,0,0,0,.58-8.2c0-1.84-.09-3.67-.26-5.47a57.31,57.31,0,0,1-6.18.33,58.18,58.18,0,0,1-56.78-45.28c-.32-1.4-.61-2.91-.84-4.52-.15-1-.26-2-.35-3-.17-1.79-.26-3.62-.26-5.46a57.35,57.35,0,0,1,.6-8.34,58.23,58.23,0,0,1,115.27,0A57.35,57.35,0,0,1,550.23,59Z"/></g></g></svg>